<svg width="513" height="121" viewBox="0 0 513 121" fill="none" xmlns="http://www.w3.org/2000/svg">
<path d="M33.4 96.28C27.4267 96.28 22.0507 95.5547 17.272 94.104C12.4933 92.568 7.928 89.9227 3.576 86.168C2.46667 85.2293 1.61333 84.1627 1.016 82.968C0.418667 81.7733 0.12 80.5787 0.12 79.384C0.12 77.4213 0.802667 75.7147 2.168 74.264C3.61867 72.728 5.41067 71.96 7.544 71.96C9.16533 71.96 10.616 72.472 11.896 73.496C15.1387 76.1413 18.3387 78.1467 21.496 79.512C24.7387 80.8773 28.7067 81.56 33.4 81.56C36.5573 81.56 39.4587 81.0907 42.104 80.152C44.7493 79.128 46.8827 77.8053 48.504 76.184C50.1253 74.4773 50.936 72.5573 50.936 70.424C50.936 67.864 50.168 65.688 48.632 63.896C47.096 62.104 44.7493 60.6107 41.592 59.416C38.4347 58.136 34.424 57.1547 29.56 56.472C24.952 55.7893 20.8987 54.7653 17.4 53.4C13.9013 51.9493 10.9573 50.1573 8.568 48.024C6.264 45.8053 4.51467 43.2453 3.32 40.344C2.12533 37.3573 1.528 34.0293 1.528 30.36C1.528 24.8133 2.936 20.0773 5.752 16.152C8.65333 12.2267 12.536 9.23999 17.4 7.19199C22.264 5.14399 27.64 4.12 33.528 4.12C39.0747 4.12 44.1947 4.97333 48.888 6.67999C53.6667 8.30133 57.5493 10.392 60.536 12.952C63.0107 14.9147 64.248 17.176 64.248 19.736C64.248 21.6133 63.5227 23.32 62.072 24.856C60.6213 26.392 58.9147 27.16 56.952 27.16C55.672 27.16 54.52 26.776 53.496 26.008C52.1307 24.8133 50.296 23.704 47.992 22.68C45.688 21.5707 43.256 20.6747 40.696 19.992C38.136 19.224 35.7467 18.84 33.528 18.84C29.8587 18.84 26.744 19.3093 24.184 20.248C21.7093 21.1867 19.832 22.4667 18.552 24.088C17.272 25.7093 16.632 27.5867 16.632 29.72C16.632 32.28 17.3573 34.4133 18.808 36.12C20.344 37.7413 22.52 39.064 25.336 40.088C28.152 41.0267 31.5227 41.88 35.448 42.648C40.568 43.5867 45.048 44.696 48.888 45.976C52.8133 47.256 56.056 48.92 58.616 50.968C61.176 52.9307 63.096 55.448 64.376 58.52C65.656 61.5067 66.296 65.176 66.296 69.528C66.296 75.0747 64.76 79.8533 61.688 83.864C58.616 87.8747 54.5627 90.9467 49.528 93.08C44.5787 95.2133 39.2027 96.28 33.4 96.28Z" fill="#EA580C"/>
<path d="M115.663 25.24C121.807 25.24 126.458 26.5627 129.615 29.208C132.858 31.8533 135.076 35.3947 136.271 39.832C137.466 44.184 138.063 49.048 138.063 54.424V87.192C138.063 89.4107 137.338 91.288 135.887 92.824C134.436 94.2747 132.602 95 130.383 95C128.164 95 126.33 94.2747 124.879 92.824C123.428 91.288 122.703 89.4107 122.703 87.192V54.424C122.703 51.608 122.362 49.0907 121.679 46.872C120.996 44.568 119.759 42.7333 117.967 41.368C116.175 40.0027 113.615 39.32 110.287 39.32C107.044 39.32 104.271 40.0027 101.967 41.368C99.663 42.7333 97.9137 44.568 96.719 46.872C95.6097 49.0907 95.055 51.608 95.055 54.424V87.192C95.055 89.4107 94.3297 91.288 92.879 92.824C91.4283 94.2747 89.5937 95 87.375 95C85.1563 95 83.3217 94.2747 81.871 92.824C80.4203 91.288 79.695 89.4107 79.695 87.192V8.088C79.695 5.86933 80.4203 4.03466 81.871 2.58399C83.3217 1.048 85.1563 0.279999 87.375 0.279999C89.5937 0.279999 91.4283 1.048 92.879 2.58399C94.3297 4.03466 95.055 5.86933 95.055 8.088V39.832L93.135 39.448C93.903 37.9973 94.9697 36.4613 96.335 34.84C97.7003 33.1333 99.3643 31.5547 101.327 30.104C103.29 28.6533 105.466 27.5013 107.855 26.648C110.244 25.7093 112.847 25.24 115.663 25.24ZM221.127 60.824C221.127 67.8213 219.548 74.008 216.391 79.384C213.319 84.6747 209.138 88.8133 203.847 91.8C198.642 94.7867 192.796 96.28 186.311 96.28C179.826 96.28 173.938 94.7867 168.647 91.8C163.442 88.8133 159.26 84.6747 156.103 79.384C153.031 74.008 151.495 67.8213 151.495 60.824C151.495 53.8267 153.031 47.6827 156.103 42.392C159.26 37.016 163.442 32.8347 168.647 29.848C173.938 26.776 179.826 25.24 186.311 25.24C192.796 25.24 198.642 26.776 203.847 29.848C209.138 32.8347 213.319 37.016 216.391 42.392C219.548 47.6827 221.127 53.8267 221.127 60.824ZM205.767 60.824C205.767 56.472 204.871 52.7173 203.079 49.56C201.372 46.3173 199.026 43.8 196.039 42.008C193.138 40.216 189.895 39.32 186.311 39.32C182.727 39.32 179.442 40.216 176.455 42.008C173.554 43.8 171.207 46.3173 169.415 49.56C167.708 52.7173 166.855 56.472 166.855 60.824C166.855 65.0907 167.708 68.8453 169.415 72.088C171.207 75.2453 173.554 77.72 176.455 79.512C179.442 81.304 182.727 82.2 186.311 82.2C189.895 82.2 193.138 81.304 196.039 79.512C199.026 77.72 201.372 75.2453 203.079 72.088C204.871 68.8453 205.767 65.0907 205.767 60.824ZM270.026 25.24C275.999 25.24 281.333 26.776 286.026 29.848C290.805 32.8347 294.559 36.9733 297.29 42.264C300.106 47.5547 301.514 53.6987 301.514 60.696C301.514 67.6933 300.106 73.88 297.29 79.256C294.559 84.5467 290.847 88.728 286.154 91.8C281.546 94.7867 276.341 96.28 270.538 96.28C267.125 96.28 263.925 95.7253 260.938 94.616C257.951 93.5067 255.306 92.0987 253.002 90.392C250.783 88.6853 249.034 86.9787 247.754 85.272C246.559 83.48 245.962 81.9867 245.962 80.792L249.93 79.128V112.792C249.93 115.011 249.205 116.845 247.754 118.296C246.303 119.832 244.469 120.6 242.25 120.6C240.031 120.6 238.197 119.875 236.746 118.424C235.295 116.973 234.57 115.096 234.57 112.792V34.328C234.57 32.1093 235.295 30.2747 236.746 28.824C238.197 27.288 240.031 26.52 242.25 26.52C244.469 26.52 246.303 27.288 247.754 28.824C249.205 30.2747 249.93 32.1093 249.93 34.328V40.6L247.754 39.448C247.754 38.3387 248.351 37.016 249.546 35.48C250.741 33.8587 252.362 32.28 254.41 30.744C256.458 29.1227 258.805 27.8 261.45 26.776C264.181 25.752 267.039 25.24 270.026 25.24ZM268.106 39.32C264.351 39.32 261.066 40.2587 258.25 42.136C255.434 44.0133 253.215 46.5733 251.594 49.816C250.058 52.9733 249.29 56.6 249.29 60.696C249.29 64.7067 250.058 68.376 251.594 71.704C253.215 74.9467 255.434 77.5067 258.25 79.384C261.066 81.2613 264.351 82.2 268.106 82.2C271.861 82.2 275.103 81.2613 277.834 79.384C280.65 77.5067 282.826 74.9467 284.362 71.704C285.983 68.376 286.794 64.7067 286.794 60.696C286.794 56.6 285.983 52.9733 284.362 49.816C282.826 46.5733 280.65 44.0133 277.834 42.136C275.103 40.2587 271.861 39.32 268.106 39.32ZM381.377 60.824C381.377 67.8213 379.798 74.008 376.641 79.384C373.569 84.6747 369.388 88.8133 364.097 91.8C358.892 94.7867 353.046 96.28 346.561 96.28C340.076 96.28 334.188 94.7867 328.897 91.8C323.692 88.8133 319.51 84.6747 316.353 79.384C313.281 74.008 311.745 67.8213 311.745 60.824C311.745 53.8267 313.281 47.6827 316.353 42.392C319.51 37.016 323.692 32.8347 328.897 29.848C334.188 26.776 340.076 25.24 346.561 25.24C353.046 25.24 358.892 26.776 364.097 29.848C369.388 32.8347 373.569 37.016 376.641 42.392C379.798 47.6827 381.377 53.8267 381.377 60.824ZM366.017 60.824C366.017 56.472 365.121 52.7173 363.329 49.56C361.622 46.3173 359.276 43.8 356.289 42.008C353.388 40.216 350.145 39.32 346.561 39.32C342.977 39.32 339.692 40.216 336.705 42.008C333.804 43.8 331.457 46.3173 329.665 49.56C327.958 52.7173 327.105 56.472 327.105 60.824C327.105 65.0907 327.958 68.8453 329.665 72.088C331.457 75.2453 333.804 77.72 336.705 79.512C339.692 81.304 342.977 82.2 346.561 82.2C350.145 82.2 353.388 81.304 356.289 79.512C359.276 77.72 361.622 75.2453 363.329 72.088C365.121 68.8453 366.017 65.0907 366.017 60.824ZM402.5 95C400.281 95 398.447 94.2747 396.996 92.824C395.545 91.288 394.82 89.4107 394.82 87.192V34.328C394.82 32.1093 395.545 30.2747 396.996 28.824C398.447 27.288 400.281 26.52 402.5 26.52C404.719 26.52 406.553 27.288 408.004 28.824C409.455 30.2747 410.18 32.1093 410.18 34.328V46.36L409.284 37.784C410.223 35.736 411.417 33.944 412.868 32.408C414.404 30.7867 416.111 29.464 417.988 28.44C419.865 27.3307 421.871 26.52 424.004 26.008C426.137 25.496 428.271 25.24 430.404 25.24C432.964 25.24 435.097 25.9653 436.804 27.416C438.596 28.8667 439.492 30.5733 439.492 32.536C439.492 35.352 438.767 37.4 437.316 38.68C435.865 39.8747 434.287 40.472 432.58 40.472C430.959 40.472 429.465 40.1733 428.1 39.576C426.82 38.9787 425.327 38.68 423.62 38.68C422.084 38.68 420.505 39.064 418.884 39.832C417.348 40.5147 415.897 41.624 414.532 43.16C413.252 44.696 412.185 46.616 411.332 48.92C410.564 51.1387 410.18 53.784 410.18 56.856V87.192C410.18 89.4107 409.455 91.288 408.004 92.824C406.553 94.2747 404.719 95 402.5 95ZM504.884 25.24C507.103 25.24 508.937 25.9653 510.388 27.416C511.839 28.8667 512.564 30.744 512.564 33.048V87.192C512.564 89.4107 511.839 91.288 510.388 92.824C508.937 94.2747 507.103 95 504.884 95C502.665 95 500.831 94.2747 499.38 92.824C497.929 91.288 497.204 89.4107 497.204 87.192V80.92L500.02 82.072C500.02 83.1813 499.423 84.5467 498.228 86.168C497.033 87.704 495.412 89.24 493.364 90.776C491.316 92.312 488.884 93.6347 486.068 94.744C483.337 95.768 480.351 96.28 477.108 96.28C471.22 96.28 465.887 94.7867 461.108 91.8C456.329 88.728 452.532 84.5467 449.716 79.256C446.985 73.88 445.62 67.736 445.62 60.824C445.62 53.8267 446.985 47.6827 449.716 42.392C452.532 37.016 456.287 32.8347 460.98 29.848C465.673 26.776 470.879 25.24 476.596 25.24C480.265 25.24 483.636 25.7947 486.708 26.904C489.78 28.0133 492.425 29.4213 494.644 31.128C496.948 32.8347 498.697 34.584 499.892 36.376C501.172 38.0827 501.812 39.5333 501.812 40.728L497.204 42.392V33.048C497.204 30.8293 497.929 28.9947 499.38 27.544C500.831 26.008 502.665 25.24 504.884 25.24ZM479.028 82.2C482.783 82.2 486.068 81.2613 488.884 79.384C491.7 77.5067 493.876 74.9467 495.412 71.704C497.033 68.4613 497.844 64.8347 497.844 60.824C497.844 56.728 497.033 53.0587 495.412 49.816C493.876 46.5733 491.7 44.0133 488.884 42.136C486.068 40.2587 482.783 39.32 479.028 39.32C475.359 39.32 472.116 40.2587 469.3 42.136C466.484 44.0133 464.265 46.5733 462.644 49.816C461.108 53.0587 460.34 56.728 460.34 60.824C460.34 64.8347 461.108 68.4613 462.644 71.704C464.265 74.9467 466.484 77.5067 469.3 79.384C472.116 81.2613 475.359 82.2 479.028 82.2Z" fill="black"/>
</svg>
